Simulation
nRows=19
nColumns=15
endheader
time  TH_x TH_y TH_z SC_y  SC_z  SC_x  AC_y  AC_z  AC_x  GH_y  GH_z  GH_yy  EL_x  PS_y
4.8020000000000005  0.000000  0.000000  0.000000  -37.599688386212236  11.19873282425132  12.840816503880681  54.04725286488132  23.24737969084772  15.305495409529051  3.0855292136173875  60.546096621473424  -0.3505786148886425  13.621540883673536  120.000000
4.850020000000001  0.000000  0.000000  0.000000  -37.6670754423566  11.136289059795413  13.18805273865793  54.168025618817325  23.006615836319003  15.02044621143742  3.2164620333438396  60.79411384829533  -0.5406004890311955  13.570697244960956  120.000000
4.898040000000001  0.000000  0.000000  0.000000  -37.564750700574436  11.008048009661271  13.255530997620308  54.248657139364504  22.758091412310627  14.54426972059806  3.527405609564498  60.804830534736624  -0.6941236409596173  13.417842863442223  120.000000
4.946060000000001  0.000000  0.000000  0.000000  -37.29211649401922  10.815899385033122  13.030235178025203  54.29306349203088  22.492399867383167  13.878216199155258  4.008999972783421  60.540254485803615  -0.8425755728257253  13.208320440489958  120.000000
4.99408  0.000000  0.000000  0.000000  -36.85962693573037  10.560908499999577  12.505330699089429  54.3057256019338  22.198668738406784  13.036074119268049  4.650800406663394  59.976349398132214  -1.0177021885424586  12.981627065811539  120.000000
5.0421000000000005  0.000000  0.000000  0.000000  -36.287570353609595  10.24163233932695  11.680865014731673  54.28746246945891  21.86713168528033  12.045709419533809  5.445260505730851  59.10553303107325  -1.2460512293599302  12.767813682843485  120.000000
5.090120000000001  0.000000  0.000000  0.000000  -35.604766477902714  9.853860433185613  10.563636286377383  54.231630230174694  21.49091894440578  10.94860251043891  6.3903759073416175  57.9356752983408  -1.5440614613449724  12.588343923410756  120.000000
5.138140000000001  0.000000  0.000000  0.000000  -34.84643651999299  9.393354832823475  9.167291587145929  54.124547704966226  21.06789275428927  9.795911046787374  7.490419382655119  56.48681513493218  -1.9130646085360041  12.457245010246822  120.000000
5.186160000000001  0.000000  0.000000  0.000000  -34.0502166883753  8.857567408870162  7.513829101319137  53.94842997192565  20.601116335008765  8.645915057443867  8.755149154074203  54.78807490474796  -2.3347697587461904  12.380074830347258  120.000000
5.234180000000001  0.000000  0.000000  0.000000  -33.25320887929632  8.248887103053768  5.635181639822084  53.68527064870451  20.09921744912786  7.557821966289331  10.193718033621417  52.87311064249065  -2.767331374084805  12.350515859880192  120.000000
5.2822000000000005  0.000000  0.000000  0.000000  -32.4883140805253  7.577382950814685  3.575061145324233  53.32082024389467  19.577364037046017  6.585467552058154  11.807113889065057  50.773579057647154  -3.148718933627034  12.349912162778763  120.000000
5.330220000000001  0.000000  0.000000  0.000000  -31.77975499681442  6.861830977104344  1.390637322032149  52.85027778909667  19.057099449845527  5.772185159689419  13.584702948929587  48.513170641733836  -3.409239209369298  12.352469346118172  120.000000
5.378240000000001  0.000000  0.000000  0.000000  -31.13931342559521  6.129829764882079  -0.8471862303143128  52.283230585638286  18.56475623230667  5.146438373035839  15.50512827367223  46.103102313125696  -3.4892203394590804  12.333736836261009  120.000000
5.426260000000001  0.000000  0.000000  0.000000  -30.567459448427368  5.416263290716521  -3.0560261624495633  51.64517703872101  18.128854294268105  4.719475021530407  17.5412205540107  43.54269473705263  -3.356886412452324  12.279251031041854  120.000000
5.474280000000001  0.000000  0.000000  0.000000  -30.059663530105425  4.761886299498773  -5.147753211972495  50.973403607500146  17.776847060704508  4.484548766018394  19.666604249872183  40.82437022032426  -3.019081499766397  12.189904600402878  120.000000
5.5223  0.000000  0.000000  0.000000  -29.61309976701047  4.209624760339037  -7.03684057180772  50.31143808678449  17.531695187842374  4.420107263601932  21.867147699720327  37.94410905672502  -2.524292229484718  12.080703048503741  120.000000
5.570320000000001  0.000000  0.000000  0.000000  -29.230222087381478  3.7984139592143897  -8.647880615600174  49.70355498456436  17.407409581110542  4.497336990688619  24.151424033275205  34.91295000565093  -1.9557025534159556  11.975223919067972  120.000000
5.618340000000001  0.000000  0.000000  0.000000  -28.921821287470753  3.5582206411342936  -9.923092046879702  49.191324114328964  17.40455148072502  4.686844139509677  26.555736127864936  31.764444254968666  -1.417900235023767  11.899877722096239  120.000000
5.666360000000001  0.000000  0.000000  0.000000  -28.70454296436105  3.5067607577677684  -10.827721421696321  48.810261834785535  17.508574487869488  4.962420290452613  29.145041009210903  28.55193924140811  -1.025966051017919  11.879535745386988  120.000000
